G75*
%MOIN*%
%OFA0B0*%
%FSLAX24Y24*%
%IPPOS*%
%LPD*%
%AMOC8*
5,1,8,0,0,1.08239X$1,22.5*
%
%ADD10C,0.0000*%
%ADD11R,0.0340X0.0080*%
%ADD12R,0.0570X0.0649*%
%ADD13R,0.0294X0.0216*%
%ADD14R,0.0216X0.0294*%
%ADD15R,0.0649X0.0570*%
%ADD16R,0.0531X0.0452*%
%ADD17R,0.0806X0.0491*%
%ADD18R,0.0334X0.0373*%
%ADD19R,0.2050X0.3300*%
%ADD20R,0.0290X0.1140*%
%ADD21R,0.0373X0.0334*%
%ADD22R,0.0491X0.0806*%
%ADD23R,0.0176X0.0806*%
%ADD24R,0.0806X0.0176*%
%ADD25R,0.0727X0.0924*%
%ADD26R,0.0727X0.1239*%
%ADD27R,0.0137X0.1160*%
%ADD28R,0.0294X0.0058*%
%ADD29R,0.0058X0.0294*%
%ADD30R,0.0649X0.0373*%
%ADD31R,0.0294X0.0570*%
%ADD32R,0.0452X0.0452*%
%ADD33R,0.2090X0.2340*%
%ADD34R,0.0940X0.0220*%
%ADD35R,0.0133X0.0184*%
%ADD36R,0.0471X0.0314*%
%ADD37R,0.0314X0.0609*%
%ADD38R,0.0184X0.0133*%
%ADD39R,0.0031X0.0129*%
%ADD40R,0.0129X0.0031*%
%ADD41R,0.0394X0.0394*%
%ADD42R,0.1220X0.1220*%
%ADD43R,0.0314X0.0058*%
%ADD44R,0.0058X0.0314*%
%ADD45R,0.0570X0.0452*%
%ADD46R,0.0300X0.0420*%
%ADD47R,0.0641X0.0790*%
%ADD48R,0.0452X0.0570*%
%ADD49R,0.0590X0.0255*%
%ADD50R,0.0590X0.0176*%
%ADD51R,0.0255X0.0255*%
%ADD52R,0.0491X0.0688*%
%ADD53R,0.2802X0.2290*%
%ADD54R,0.1146X0.0412*%
%ADD55R,0.0964X0.0491*%
%ADD56R,0.0491X0.0964*%
D10*
X000150Y001100D02*
X000150Y032910D01*
X063650Y032910D01*
X063650Y001100D01*
X000150Y001100D01*
X000775Y004450D02*
X000777Y004500D01*
X000783Y004549D01*
X000793Y004598D01*
X000806Y004645D01*
X000824Y004692D01*
X000845Y004737D01*
X000869Y004780D01*
X000897Y004821D01*
X000928Y004860D01*
X000962Y004896D01*
X000999Y004930D01*
X001039Y004960D01*
X001080Y004987D01*
X001124Y005011D01*
X001169Y005031D01*
X001216Y005047D01*
X001264Y005060D01*
X001313Y005069D01*
X001363Y005074D01*
X001412Y005075D01*
X001462Y005072D01*
X001511Y005065D01*
X001560Y005054D01*
X001607Y005040D01*
X001653Y005021D01*
X001698Y004999D01*
X001741Y004974D01*
X001781Y004945D01*
X001819Y004913D01*
X001855Y004879D01*
X001888Y004841D01*
X001917Y004801D01*
X001943Y004759D01*
X001966Y004715D01*
X001985Y004669D01*
X002001Y004622D01*
X002013Y004573D01*
X002021Y004524D01*
X002025Y004475D01*
X002025Y004425D01*
X002021Y004376D01*
X002013Y004327D01*
X002001Y004278D01*
X001985Y004231D01*
X001966Y004185D01*
X001943Y004141D01*
X001917Y004099D01*
X001888Y004059D01*
X001855Y004021D01*
X001819Y003987D01*
X001781Y003955D01*
X001741Y003926D01*
X001698Y003901D01*
X001653Y003879D01*
X001607Y003860D01*
X001560Y003846D01*
X001511Y003835D01*
X001462Y003828D01*
X001412Y003825D01*
X001363Y003826D01*
X001313Y003831D01*
X001264Y003840D01*
X001216Y003853D01*
X001169Y003869D01*
X001124Y003889D01*
X001080Y003913D01*
X001039Y003940D01*
X000999Y003970D01*
X000962Y004004D01*
X000928Y004040D01*
X000897Y004079D01*
X000869Y004120D01*
X000845Y004163D01*
X000824Y004208D01*
X000806Y004255D01*
X000793Y004302D01*
X000783Y004351D01*
X000777Y004400D01*
X000775Y004450D01*
X000775Y023950D02*
X000777Y024000D01*
X000783Y024049D01*
X000793Y024098D01*
X000806Y024145D01*
X000824Y024192D01*
X000845Y024237D01*
X000869Y024280D01*
X000897Y024321D01*
X000928Y024360D01*
X000962Y024396D01*
X000999Y024430D01*
X001039Y024460D01*
X001080Y024487D01*
X001124Y024511D01*
X001169Y024531D01*
X001216Y024547D01*
X001264Y024560D01*
X001313Y024569D01*
X001363Y024574D01*
X001412Y024575D01*
X001462Y024572D01*
X001511Y024565D01*
X001560Y024554D01*
X001607Y024540D01*
X001653Y024521D01*
X001698Y024499D01*
X001741Y024474D01*
X001781Y024445D01*
X001819Y024413D01*
X001855Y024379D01*
X001888Y024341D01*
X001917Y024301D01*
X001943Y024259D01*
X001966Y024215D01*
X001985Y024169D01*
X002001Y024122D01*
X002013Y024073D01*
X002021Y024024D01*
X002025Y023975D01*
X002025Y023925D01*
X002021Y023876D01*
X002013Y023827D01*
X002001Y023778D01*
X001985Y023731D01*
X001966Y023685D01*
X001943Y023641D01*
X001917Y023599D01*
X001888Y023559D01*
X001855Y023521D01*
X001819Y023487D01*
X001781Y023455D01*
X001741Y023426D01*
X001698Y023401D01*
X001653Y023379D01*
X001607Y023360D01*
X001560Y023346D01*
X001511Y023335D01*
X001462Y023328D01*
X001412Y023325D01*
X001363Y023326D01*
X001313Y023331D01*
X001264Y023340D01*
X001216Y023353D01*
X001169Y023369D01*
X001124Y023389D01*
X001080Y023413D01*
X001039Y023440D01*
X000999Y023470D01*
X000962Y023504D01*
X000928Y023540D01*
X000897Y023579D01*
X000869Y023620D01*
X000845Y023663D01*
X000824Y023708D01*
X000806Y023755D01*
X000793Y023802D01*
X000783Y023851D01*
X000777Y023900D01*
X000775Y023950D01*
X027307Y030800D02*
X027309Y030826D01*
X027315Y030852D01*
X027325Y030877D01*
X027338Y030900D01*
X027354Y030920D01*
X027374Y030938D01*
X027396Y030953D01*
X027419Y030965D01*
X027445Y030973D01*
X027471Y030977D01*
X027497Y030977D01*
X027523Y030973D01*
X027549Y030965D01*
X027573Y030953D01*
X027594Y030938D01*
X027614Y030920D01*
X027630Y030900D01*
X027643Y030877D01*
X027653Y030852D01*
X027659Y030826D01*
X027661Y030800D01*
X027659Y030774D01*
X027653Y030748D01*
X027643Y030723D01*
X027630Y030700D01*
X027614Y030680D01*
X027594Y030662D01*
X027572Y030647D01*
X027549Y030635D01*
X027523Y030627D01*
X027497Y030623D01*
X027471Y030623D01*
X027445Y030627D01*
X027419Y030635D01*
X027395Y030647D01*
X027374Y030662D01*
X027354Y030680D01*
X027338Y030700D01*
X027325Y030723D01*
X027315Y030748D01*
X027309Y030774D01*
X027307Y030800D01*
X029039Y030800D02*
X029041Y030826D01*
X029047Y030852D01*
X029057Y030877D01*
X029070Y030900D01*
X029086Y030920D01*
X029106Y030938D01*
X029128Y030953D01*
X029151Y030965D01*
X029177Y030973D01*
X029203Y030977D01*
X029229Y030977D01*
X029255Y030973D01*
X029281Y030965D01*
X029305Y030953D01*
X029326Y030938D01*
X029346Y030920D01*
X029362Y030900D01*
X029375Y030877D01*
X029385Y030852D01*
X029391Y030826D01*
X029393Y030800D01*
X029391Y030774D01*
X029385Y030748D01*
X029375Y030723D01*
X029362Y030700D01*
X029346Y030680D01*
X029326Y030662D01*
X029304Y030647D01*
X029281Y030635D01*
X029255Y030627D01*
X029229Y030623D01*
X029203Y030623D01*
X029177Y030627D01*
X029151Y030635D01*
X029127Y030647D01*
X029106Y030662D01*
X029086Y030680D01*
X029070Y030700D01*
X029057Y030723D01*
X029047Y030748D01*
X029041Y030774D01*
X029039Y030800D01*
X037599Y021500D02*
X037601Y021547D01*
X037607Y021593D01*
X037617Y021639D01*
X037630Y021684D01*
X037648Y021727D01*
X037669Y021769D01*
X037693Y021809D01*
X037721Y021846D01*
X037752Y021881D01*
X037786Y021914D01*
X037822Y021943D01*
X037861Y021969D01*
X037902Y021992D01*
X037945Y022011D01*
X037989Y022027D01*
X038034Y022039D01*
X038080Y022047D01*
X038127Y022051D01*
X038173Y022051D01*
X038220Y022047D01*
X038266Y022039D01*
X038311Y022027D01*
X038355Y022011D01*
X038398Y021992D01*
X038439Y021969D01*
X038478Y021943D01*
X038514Y021914D01*
X038548Y021881D01*
X038579Y021846D01*
X038607Y021809D01*
X038631Y021769D01*
X038652Y021727D01*
X038670Y021684D01*
X038683Y021639D01*
X038693Y021593D01*
X038699Y021547D01*
X038701Y021500D01*
X038699Y021453D01*
X038693Y021407D01*
X038683Y021361D01*
X038670Y021316D01*
X038652Y021273D01*
X038631Y021231D01*
X038607Y021191D01*
X038579Y021154D01*
X038548Y021119D01*
X038514Y021086D01*
X038478Y021057D01*
X038439Y021031D01*
X038398Y021008D01*
X038355Y020989D01*
X038311Y020973D01*
X038266Y020961D01*
X038220Y020953D01*
X038173Y020949D01*
X038127Y020949D01*
X038080Y020953D01*
X038034Y020961D01*
X037989Y020973D01*
X037945Y020989D01*
X037902Y021008D01*
X037861Y021031D01*
X037822Y021057D01*
X037786Y021086D01*
X037752Y021119D01*
X037721Y021154D01*
X037693Y021191D01*
X037669Y021231D01*
X037648Y021273D01*
X037630Y021316D01*
X037617Y021361D01*
X037607Y021407D01*
X037601Y021453D01*
X037599Y021500D01*
X057599Y021500D02*
X057601Y021547D01*
X057607Y021593D01*
X057617Y021639D01*
X057630Y021684D01*
X057648Y021727D01*
X057669Y021769D01*
X057693Y021809D01*
X057721Y021846D01*
X057752Y021881D01*
X057786Y021914D01*
X057822Y021943D01*
X057861Y021969D01*
X057902Y021992D01*
X057945Y022011D01*
X057989Y022027D01*
X058034Y022039D01*
X058080Y022047D01*
X058127Y022051D01*
X058173Y022051D01*
X058220Y022047D01*
X058266Y022039D01*
X058311Y022027D01*
X058355Y022011D01*
X058398Y021992D01*
X058439Y021969D01*
X058478Y021943D01*
X058514Y021914D01*
X058548Y021881D01*
X058579Y021846D01*
X058607Y021809D01*
X058631Y021769D01*
X058652Y021727D01*
X058670Y021684D01*
X058683Y021639D01*
X058693Y021593D01*
X058699Y021547D01*
X058701Y021500D01*
X058699Y021453D01*
X058693Y021407D01*
X058683Y021361D01*
X058670Y021316D01*
X058652Y021273D01*
X058631Y021231D01*
X058607Y021191D01*
X058579Y021154D01*
X058548Y021119D01*
X058514Y021086D01*
X058478Y021057D01*
X058439Y021031D01*
X058398Y021008D01*
X058355Y020989D01*
X058311Y020973D01*
X058266Y020961D01*
X058220Y020953D01*
X058173Y020949D01*
X058127Y020949D01*
X058080Y020953D01*
X058034Y020961D01*
X057989Y020973D01*
X057945Y020989D01*
X057902Y021008D01*
X057861Y021031D01*
X057822Y021057D01*
X057786Y021086D01*
X057752Y021119D01*
X057721Y021154D01*
X057693Y021191D01*
X057669Y021231D01*
X057648Y021273D01*
X057630Y021316D01*
X057617Y021361D01*
X057607Y021407D01*
X057601Y021453D01*
X057599Y021500D01*
X061775Y023950D02*
X061777Y024000D01*
X061783Y024049D01*
X061793Y024098D01*
X061806Y024145D01*
X061824Y024192D01*
X061845Y024237D01*
X061869Y024280D01*
X061897Y024321D01*
X061928Y024360D01*
X061962Y024396D01*
X061999Y024430D01*
X062039Y024460D01*
X062080Y024487D01*
X062124Y024511D01*
X062169Y024531D01*
X062216Y024547D01*
X062264Y024560D01*
X062313Y024569D01*
X062363Y024574D01*
X062412Y024575D01*
X062462Y024572D01*
X062511Y024565D01*
X062560Y024554D01*
X062607Y024540D01*
X062653Y024521D01*
X062698Y024499D01*
X062741Y024474D01*
X062781Y024445D01*
X062819Y024413D01*
X062855Y024379D01*
X062888Y024341D01*
X062917Y024301D01*
X062943Y024259D01*
X062966Y024215D01*
X062985Y024169D01*
X063001Y024122D01*
X063013Y024073D01*
X063021Y024024D01*
X063025Y023975D01*
X063025Y023925D01*
X063021Y023876D01*
X063013Y023827D01*
X063001Y023778D01*
X062985Y023731D01*
X062966Y023685D01*
X062943Y023641D01*
X062917Y023599D01*
X062888Y023559D01*
X062855Y023521D01*
X062819Y023487D01*
X062781Y023455D01*
X062741Y023426D01*
X062698Y023401D01*
X062653Y023379D01*
X062607Y023360D01*
X062560Y023346D01*
X062511Y023335D01*
X062462Y023328D01*
X062412Y023325D01*
X062363Y023326D01*
X062313Y023331D01*
X062264Y023340D01*
X062216Y023353D01*
X062169Y023369D01*
X062124Y023389D01*
X062080Y023413D01*
X062039Y023440D01*
X061999Y023470D01*
X061962Y023504D01*
X061928Y023540D01*
X061897Y023579D01*
X061869Y023620D01*
X061845Y023663D01*
X061824Y023708D01*
X061806Y023755D01*
X061793Y023802D01*
X061783Y023851D01*
X061777Y023900D01*
X061775Y023950D01*
X061775Y004450D02*
X061777Y004500D01*
X061783Y004549D01*
X061793Y004598D01*
X061806Y004645D01*
X061824Y004692D01*
X061845Y004737D01*
X061869Y004780D01*
X061897Y004821D01*
X061928Y004860D01*
X061962Y004896D01*
X061999Y004930D01*
X062039Y004960D01*
X062080Y004987D01*
X062124Y005011D01*
X062169Y005031D01*
X062216Y005047D01*
X062264Y005060D01*
X062313Y005069D01*
X062363Y005074D01*
X062412Y005075D01*
X062462Y005072D01*
X062511Y005065D01*
X062560Y005054D01*
X062607Y005040D01*
X062653Y005021D01*
X062698Y004999D01*
X062741Y004974D01*
X062781Y004945D01*
X062819Y004913D01*
X062855Y004879D01*
X062888Y004841D01*
X062917Y004801D01*
X062943Y004759D01*
X062966Y004715D01*
X062985Y004669D01*
X063001Y004622D01*
X063013Y004573D01*
X063021Y004524D01*
X063025Y004475D01*
X063025Y004425D01*
X063021Y004376D01*
X063013Y004327D01*
X063001Y004278D01*
X062985Y004231D01*
X062966Y004185D01*
X062943Y004141D01*
X062917Y004099D01*
X062888Y004059D01*
X062855Y004021D01*
X062819Y003987D01*
X062781Y003955D01*
X062741Y003926D01*
X062698Y003901D01*
X062653Y003879D01*
X062607Y003860D01*
X062560Y003846D01*
X062511Y003835D01*
X062462Y003828D01*
X062412Y003825D01*
X062363Y003826D01*
X062313Y003831D01*
X062264Y003840D01*
X062216Y003853D01*
X062169Y003869D01*
X062124Y003889D01*
X062080Y003913D01*
X062039Y003940D01*
X061999Y003970D01*
X061962Y004004D01*
X061928Y004040D01*
X061897Y004079D01*
X061869Y004120D01*
X061845Y004163D01*
X061824Y004208D01*
X061806Y004255D01*
X061793Y004302D01*
X061783Y004351D01*
X061777Y004400D01*
X061775Y004450D01*
X057599Y002500D02*
X057601Y002547D01*
X057607Y002593D01*
X057617Y002639D01*
X057630Y002684D01*
X057648Y002727D01*
X057669Y002769D01*
X057693Y002809D01*
X057721Y002846D01*
X057752Y002881D01*
X057786Y002914D01*
X057822Y002943D01*
X057861Y002969D01*
X057902Y002992D01*
X057945Y003011D01*
X057989Y003027D01*
X058034Y003039D01*
X058080Y003047D01*
X058127Y003051D01*
X058173Y003051D01*
X058220Y003047D01*
X058266Y003039D01*
X058311Y003027D01*
X058355Y003011D01*
X058398Y002992D01*
X058439Y002969D01*
X058478Y002943D01*
X058514Y002914D01*
X058548Y002881D01*
X058579Y002846D01*
X058607Y002809D01*
X058631Y002769D01*
X058652Y002727D01*
X058670Y002684D01*
X058683Y002639D01*
X058693Y002593D01*
X058699Y002547D01*
X058701Y002500D01*
X058699Y002453D01*
X058693Y002407D01*
X058683Y002361D01*
X058670Y002316D01*
X058652Y002273D01*
X058631Y002231D01*
X058607Y002191D01*
X058579Y002154D01*
X058548Y002119D01*
X058514Y002086D01*
X058478Y002057D01*
X058439Y002031D01*
X058398Y002008D01*
X058355Y001989D01*
X058311Y001973D01*
X058266Y001961D01*
X058220Y001953D01*
X058173Y001949D01*
X058127Y001949D01*
X058080Y001953D01*
X058034Y001961D01*
X057989Y001973D01*
X057945Y001989D01*
X057902Y002008D01*
X057861Y002031D01*
X057822Y002057D01*
X057786Y002086D01*
X057752Y002119D01*
X057721Y002154D01*
X057693Y002191D01*
X057669Y002231D01*
X057648Y002273D01*
X057630Y002316D01*
X057617Y002361D01*
X057607Y002407D01*
X057601Y002453D01*
X057599Y002500D01*
X037599Y002500D02*
X037601Y002547D01*
X037607Y002593D01*
X037617Y002639D01*
X037630Y002684D01*
X037648Y002727D01*
X037669Y002769D01*
X037693Y002809D01*
X037721Y002846D01*
X037752Y002881D01*
X037786Y002914D01*
X037822Y002943D01*
X037861Y002969D01*
X037902Y002992D01*
X037945Y003011D01*
X037989Y003027D01*
X038034Y003039D01*
X038080Y003047D01*
X038127Y003051D01*
X038173Y003051D01*
X038220Y003047D01*
X038266Y003039D01*
X038311Y003027D01*
X038355Y003011D01*
X038398Y002992D01*
X038439Y002969D01*
X038478Y002943D01*
X038514Y002914D01*
X038548Y002881D01*
X038579Y002846D01*
X038607Y002809D01*
X038631Y002769D01*
X038652Y002727D01*
X038670Y002684D01*
X038683Y002639D01*
X038693Y002593D01*
X038699Y002547D01*
X038701Y002500D01*
X038699Y002453D01*
X038693Y002407D01*
X038683Y002361D01*
X038670Y002316D01*
X038652Y002273D01*
X038631Y002231D01*
X038607Y002191D01*
X038579Y002154D01*
X038548Y002119D01*
X038514Y002086D01*
X038478Y002057D01*
X038439Y002031D01*
X038398Y002008D01*
X038355Y001989D01*
X038311Y001973D01*
X038266Y001961D01*
X038220Y001953D01*
X038173Y001949D01*
X038127Y001949D01*
X038080Y001953D01*
X038034Y001961D01*
X037989Y001973D01*
X037945Y001989D01*
X037902Y002008D01*
X037861Y002031D01*
X037822Y002057D01*
X037786Y002086D01*
X037752Y002119D01*
X037721Y002154D01*
X037693Y002191D01*
X037669Y002231D01*
X037648Y002273D01*
X037630Y002316D01*
X037617Y002361D01*
X037607Y002407D01*
X037601Y002453D01*
X037599Y002500D01*
D11*
X014677Y010006D03*
X014677Y010203D03*
X014677Y010400D03*
X014677Y010597D03*
X014677Y010794D03*
X013023Y010794D03*
X013023Y010597D03*
X013023Y010400D03*
X013023Y010203D03*
X013023Y010006D03*
X013023Y012906D03*
X013023Y013103D03*
X013023Y013300D03*
X013023Y013497D03*
X013023Y013694D03*
X014677Y013694D03*
X014677Y013497D03*
X014677Y013300D03*
X014677Y013103D03*
X014677Y012906D03*
X014677Y016306D03*
X014677Y016503D03*
X014677Y016700D03*
X014677Y016897D03*
X014677Y017094D03*
X013023Y017094D03*
X013023Y016897D03*
X013023Y016700D03*
X013023Y016503D03*
X013023Y016306D03*
X013023Y019206D03*
X013023Y019403D03*
X013023Y019600D03*
X013023Y019797D03*
X013023Y019994D03*
X014677Y019994D03*
X014677Y019797D03*
X014677Y019600D03*
X014677Y019403D03*
X014677Y019206D03*
D12*
X014341Y020600D03*
X013239Y020600D03*
X013239Y017700D03*
X014341Y017700D03*
X014341Y014300D03*
X013239Y014300D03*
X013239Y011400D03*
X014341Y011400D03*
D13*
X012590Y011276D03*
X012590Y010764D03*
X012590Y013674D03*
X012590Y014186D03*
X012590Y017074D03*
X012590Y017586D03*
X012580Y019954D03*
X012580Y020466D03*
X010450Y023644D03*
X010450Y024156D03*
X006850Y024144D03*
X006850Y024656D03*
X019050Y020366D03*
X019050Y019854D03*
X022450Y016456D03*
X022850Y016456D03*
X022850Y015944D03*
X022450Y015944D03*
X023450Y015744D03*
X023950Y015956D03*
X023450Y016256D03*
X023950Y015444D03*
X028350Y015744D03*
X028350Y016256D03*
X028250Y014456D03*
X028250Y013944D03*
X031300Y014444D03*
X031300Y014956D03*
X038550Y015234D03*
X038550Y015746D03*
X047450Y012856D03*
X047450Y012344D03*
X054350Y019744D03*
X054760Y019744D03*
X054760Y020256D03*
X054350Y020256D03*
X035950Y026344D03*
X035950Y026856D03*
X029250Y023356D03*
X029250Y022844D03*
X029750Y022644D03*
X029750Y023156D03*
X028650Y023644D03*
X028650Y024156D03*
X028340Y024644D03*
X028340Y025156D03*
X023350Y024456D03*
X023350Y023944D03*
X031200Y009256D03*
X031200Y008744D03*
X031210Y004196D03*
X031210Y003684D03*
D14*
X033494Y005800D03*
X034006Y005800D03*
X033906Y011200D03*
X033394Y011200D03*
X025506Y013900D03*
X024994Y013900D03*
X024994Y014700D03*
X025506Y014700D03*
X027294Y016300D03*
X027806Y016300D03*
X029494Y017200D03*
X030006Y017200D03*
X029726Y017700D03*
X029214Y017700D03*
X029494Y021100D03*
X030006Y021100D03*
X021806Y020800D03*
X021806Y020400D03*
X021294Y020400D03*
X021294Y020800D03*
X019606Y022000D03*
X019094Y022000D03*
X019094Y022500D03*
X019606Y022500D03*
X019606Y023200D03*
X019606Y023700D03*
X019094Y023700D03*
X019094Y023200D03*
X015506Y020300D03*
X014994Y020300D03*
X014994Y017400D03*
X015506Y017400D03*
X020094Y017900D03*
X020606Y017900D03*
X021294Y017800D03*
X021294Y018200D03*
X021294Y018600D03*
X021294Y019000D03*
X021806Y019000D03*
X021806Y018600D03*
X021806Y018200D03*
X021806Y017800D03*
X015506Y014000D03*
X014994Y014000D03*
X014994Y011100D03*
X015506Y011100D03*
X015694Y010200D03*
X016206Y010200D03*
X009406Y009700D03*
X008894Y009700D03*
X008406Y009700D03*
X007894Y009700D03*
X006406Y009700D03*
X005894Y009700D03*
X006394Y014000D03*
X006906Y014000D03*
X008394Y014000D03*
X008906Y014000D03*
X009394Y014000D03*
X009906Y014000D03*
X009406Y016000D03*
X008894Y016000D03*
X008406Y016000D03*
X007894Y016000D03*
X006406Y016000D03*
X005894Y016000D03*
X006394Y020270D03*
X006906Y020270D03*
X008394Y020270D03*
X008906Y020270D03*
X009394Y020270D03*
X009906Y020270D03*
X012034Y023640D03*
X012034Y024050D03*
X012546Y024050D03*
X012546Y023640D03*
X046394Y012300D03*
X046906Y012300D03*
X054494Y003800D03*
X055006Y003800D03*
X055006Y003300D03*
X054494Y003300D03*
D15*
X031990Y003699D03*
X031990Y004801D03*
X031950Y008749D03*
X031950Y009851D03*
X032150Y014449D03*
X032150Y015551D03*
X053650Y019349D03*
X053650Y020451D03*
X009250Y019651D03*
X009250Y018549D03*
X009250Y017751D03*
X009250Y016649D03*
X007150Y017051D03*
X007150Y015949D03*
X005150Y015151D03*
X005150Y014049D03*
X007650Y014051D03*
X007650Y012949D03*
X009250Y013351D03*
X009250Y012249D03*
X009250Y011451D03*
X009250Y010349D03*
X007150Y010751D03*
X007150Y009649D03*
X007700Y019199D03*
X007700Y020301D03*
X006250Y024149D03*
X006250Y025251D03*
D16*
X010550Y020905D03*
X010550Y020235D03*
X011250Y020235D03*
X011250Y020905D03*
X010750Y016035D03*
X010050Y016035D03*
X010050Y015365D03*
X010750Y015365D03*
X010550Y014635D03*
X011250Y014635D03*
X011250Y013965D03*
X010550Y013965D03*
X004250Y015165D03*
X004250Y015835D03*
X010050Y009735D03*
X010750Y009735D03*
X010750Y009065D03*
X010050Y009065D03*
D17*
X033520Y012500D03*
X034780Y012500D03*
X039320Y015000D03*
X040580Y015000D03*
X035280Y007100D03*
X034020Y007100D03*
D18*
X044935Y013420D03*
X045605Y013420D03*
X049015Y013400D03*
X049685Y013400D03*
X049685Y012400D03*
X049015Y012400D03*
X025085Y023900D03*
X024415Y023900D03*
X022750Y023965D03*
X022750Y024635D03*
X021185Y021400D03*
X020515Y021400D03*
X013350Y023165D03*
X013350Y023835D03*
X041815Y029300D03*
X042485Y029300D03*
X047915Y029700D03*
X048585Y029700D03*
D19*
X047950Y008440D03*
D20*
X047950Y011320D03*
X048450Y011320D03*
X048950Y011320D03*
X049450Y011320D03*
X047450Y011320D03*
X046950Y011320D03*
X046450Y011320D03*
D21*
X046350Y012765D03*
X046350Y013435D03*
X048150Y013165D03*
X048150Y013835D03*
X027685Y009400D03*
X027015Y009400D03*
X026085Y009400D03*
X025415Y009400D03*
X025550Y010265D03*
X025550Y010935D03*
X024350Y010935D03*
X024350Y010265D03*
X024485Y009400D03*
X023815Y009400D03*
X022785Y009400D03*
X022115Y009400D03*
X022650Y010265D03*
X022650Y010935D03*
X027150Y010935D03*
X027150Y010265D03*
X047550Y025765D03*
X047550Y026435D03*
X048250Y026435D03*
X048250Y025765D03*
X036485Y029700D03*
X035815Y029700D03*
X035185Y029700D03*
X034515Y029700D03*
X033785Y029700D03*
X033115Y029700D03*
X032485Y029700D03*
X031815Y029700D03*
X032350Y029035D03*
X032350Y028365D03*
X033650Y028365D03*
X033650Y029035D03*
X034550Y029035D03*
X034550Y028365D03*
X035850Y028365D03*
X035850Y029035D03*
X029785Y027900D03*
X029115Y027900D03*
X023225Y030000D03*
X022555Y030000D03*
X021715Y029990D03*
X021045Y029990D03*
X020085Y030000D03*
X019415Y030000D03*
X018585Y030000D03*
X017915Y030000D03*
X018450Y029335D03*
X018450Y028665D03*
X019950Y028665D03*
X019950Y029335D03*
X021050Y029335D03*
X021050Y028665D03*
X022650Y028665D03*
X022650Y029335D03*
X014285Y030400D03*
X013615Y030400D03*
X013650Y029635D03*
X013650Y028965D03*
X012485Y029900D03*
X011815Y029900D03*
X011950Y029135D03*
X011950Y028465D03*
X010650Y028465D03*
X010650Y029135D03*
X010315Y030000D03*
X009685Y030000D03*
X009015Y030000D03*
X009450Y029235D03*
X009450Y028565D03*
X010985Y030000D03*
D22*
X044150Y011530D03*
X044150Y010270D03*
X051550Y010270D03*
X051550Y011530D03*
D23*
X011900Y010826D03*
X011400Y010826D03*
X010900Y010826D03*
X010400Y010826D03*
X010400Y012874D03*
X010900Y012874D03*
X011400Y012874D03*
X011900Y012874D03*
X011900Y017126D03*
X011400Y017126D03*
X010900Y017126D03*
X010400Y017126D03*
X010400Y019174D03*
X010900Y019174D03*
X011400Y019174D03*
X011900Y019174D03*
D24*
X009674Y023150D03*
X009674Y023650D03*
X009674Y024150D03*
X009674Y024650D03*
X007626Y024650D03*
X007626Y024150D03*
X007626Y023650D03*
X007626Y023150D03*
D25*
X026598Y031981D03*
X030102Y031981D03*
D26*
X030102Y029658D03*
X026598Y029658D03*
D27*
X027720Y029619D03*
X028035Y029619D03*
X028350Y029619D03*
X028665Y029619D03*
X028980Y029619D03*
D28*
X028689Y022462D03*
X028689Y022265D03*
X028689Y022069D03*
X028689Y021872D03*
X028689Y021675D03*
X028689Y021478D03*
X028689Y021281D03*
X028689Y021084D03*
X028689Y020887D03*
X028689Y020691D03*
X028689Y020494D03*
X028689Y020297D03*
X028689Y020100D03*
X028689Y019903D03*
X028689Y019706D03*
X028689Y019509D03*
X028689Y019313D03*
X028689Y019116D03*
X028689Y018919D03*
X028689Y018722D03*
X028689Y018525D03*
X028689Y018328D03*
X028689Y018131D03*
X028689Y017935D03*
X028689Y017738D03*
X022611Y017738D03*
X022611Y017935D03*
X022611Y018131D03*
X022611Y018328D03*
X022611Y018525D03*
X022611Y018722D03*
X022611Y018919D03*
X022611Y019116D03*
X022611Y019313D03*
X022611Y019509D03*
X022611Y019706D03*
X022611Y019903D03*
X022611Y020100D03*
X022611Y020297D03*
X022611Y020494D03*
X022611Y020691D03*
X022611Y020887D03*
X022611Y021084D03*
X022611Y021281D03*
X022611Y021478D03*
X022611Y021675D03*
X022611Y021872D03*
X022611Y022069D03*
X022611Y022265D03*
X022611Y022462D03*
D29*
X023288Y023139D03*
X023485Y023139D03*
X023681Y023139D03*
X023878Y023139D03*
X024075Y023139D03*
X024272Y023139D03*
X024469Y023139D03*
X024666Y023139D03*
X024863Y023139D03*
X025059Y023139D03*
X025256Y023139D03*
X025453Y023139D03*
X025650Y023139D03*
X025847Y023139D03*
X026044Y023139D03*
X026241Y023139D03*
X026437Y023139D03*
X026634Y023139D03*
X026831Y023139D03*
X027028Y023139D03*
X027225Y023139D03*
X027422Y023139D03*
X027619Y023139D03*
X027815Y023139D03*
X028012Y023139D03*
X028012Y017061D03*
X027815Y017061D03*
X027619Y017061D03*
X027422Y017061D03*
X027225Y017061D03*
X027028Y017061D03*
X026831Y017061D03*
X026634Y017061D03*
X026437Y017061D03*
X026241Y017061D03*
X026044Y017061D03*
X025847Y017061D03*
X025650Y017061D03*
X025453Y017061D03*
X025256Y017061D03*
X025059Y017061D03*
X024863Y017061D03*
X024666Y017061D03*
X024469Y017061D03*
X024272Y017061D03*
X024075Y017061D03*
X023878Y017061D03*
X023681Y017061D03*
X023485Y017061D03*
X023288Y017061D03*
D30*
X037130Y026372D03*
X037130Y027828D03*
X039570Y027828D03*
X039570Y026372D03*
D31*
X046199Y021022D03*
X047301Y021022D03*
D32*
X046750Y021978D03*
D33*
X035840Y009600D03*
X035840Y004200D03*
D34*
X033250Y003750D03*
X033250Y003300D03*
X033250Y004650D03*
X033250Y005100D03*
X033250Y008700D03*
X033250Y009150D03*
X033250Y010050D03*
X033250Y010500D03*
D35*
X052081Y023390D03*
X052419Y023390D03*
X052419Y023800D03*
X052081Y023800D03*
X051319Y023800D03*
X050981Y023800D03*
X051001Y024600D03*
X051339Y024600D03*
X050719Y024900D03*
X050381Y024900D03*
X053781Y026000D03*
X054119Y026000D03*
X054381Y025100D03*
X054719Y025100D03*
X054019Y031000D03*
X053681Y031000D03*
X053019Y031400D03*
X052681Y031400D03*
D36*
X054450Y028315D03*
X054450Y027685D03*
D37*
X054199Y026900D03*
X055301Y026900D03*
X052001Y022700D03*
X050899Y022700D03*
D38*
X052950Y022931D03*
X052950Y023269D03*
X053350Y023269D03*
X053350Y022931D03*
X053750Y023231D03*
X053750Y023569D03*
X054450Y025731D03*
X054450Y026069D03*
X054850Y026069D03*
X054850Y025731D03*
X049250Y019239D03*
X049250Y018901D03*
X036850Y024261D03*
X036850Y024599D03*
D39*
X052858Y024068D03*
X053055Y024068D03*
X053252Y024068D03*
X053448Y024068D03*
X053645Y024068D03*
X053842Y024068D03*
X053842Y025532D03*
X053645Y025532D03*
X053448Y025532D03*
X053252Y025532D03*
X053055Y025532D03*
X052858Y025532D03*
D40*
X052618Y025292D03*
X052618Y025095D03*
X052618Y024898D03*
X052618Y024702D03*
X052618Y024505D03*
X052618Y024308D03*
X054082Y024308D03*
X054082Y024505D03*
X054082Y024702D03*
X054082Y024898D03*
X054082Y025095D03*
X054082Y025292D03*
D41*
X053586Y025036D03*
X053114Y025036D03*
X053114Y024564D03*
X053586Y024564D03*
D42*
X047650Y028100D03*
D43*
X046729Y028100D03*
X046729Y028297D03*
X046729Y028494D03*
X046729Y028691D03*
X046729Y027903D03*
X046729Y027706D03*
X046729Y027509D03*
X048571Y027509D03*
X048571Y027706D03*
X048571Y027903D03*
X048571Y028100D03*
X048571Y028297D03*
X048571Y028494D03*
X048571Y028691D03*
D44*
X048241Y029021D03*
X048044Y029021D03*
X047847Y029021D03*
X047650Y029021D03*
X047453Y029021D03*
X047256Y029021D03*
X047059Y029021D03*
X047059Y027179D03*
X047256Y027179D03*
X047453Y027179D03*
X047650Y027179D03*
X047847Y027179D03*
X048044Y027179D03*
X048241Y027179D03*
D45*
X049450Y027806D03*
X049450Y028594D03*
X043150Y028406D03*
X043150Y029194D03*
D46*
X043140Y027400D03*
X041850Y027400D03*
X047260Y030600D03*
X048550Y030600D03*
D47*
X043549Y031300D03*
X041947Y031300D03*
D48*
X041856Y030100D03*
X042644Y030100D03*
D49*
X027550Y014713D03*
X027550Y013887D03*
X026350Y013887D03*
X026350Y014713D03*
D50*
X026350Y014300D03*
X027550Y014300D03*
D51*
X020745Y022000D03*
X020155Y022000D03*
X020155Y022500D03*
X020745Y022500D03*
X020745Y023200D03*
X020745Y023700D03*
X020155Y023700D03*
X020155Y023200D03*
D52*
X020622Y020366D03*
X019678Y020366D03*
X019678Y018634D03*
X020622Y018634D03*
D53*
X034410Y015000D03*
D54*
X037480Y015000D03*
X037480Y014100D03*
X037480Y015910D03*
D55*
X053343Y005300D03*
X054957Y005300D03*
D56*
X044850Y028193D03*
X044850Y029807D03*
M02*
